<svg width="77" height="38" viewBox="0 0 77 38" fill="none" xmlns="http://www.w3.org/2000/svg">
<path d="M13.8569 0L20.5981 0.374512L26.2158 1.87256L28.8374 2.99609L27.7139 6.74121L26.2158 10.4863L24.3433 10.1118L19.1001 8.61377L14.2314 8.23926L11.2354 9.36279L10.8608 11.9844L12.3589 13.1079L23.9688 16.4785L26.9648 17.9766L29.5864 20.9727L30.3354 22.8452V27.7139L28.8374 31.0845L26.9648 32.957L23.9688 35.2041L20.2236 36.7021L18.3511 37.0767H13.4824L6.74121 35.9531L1.49805 34.0806L0 32.957L1.12354 29.5864L2.99609 25.8413L4.86865 26.5903L10.4863 28.4629L12.7334 28.8374H16.853L19.4746 27.7139L20.2236 26.9648L19.8491 24.7178L13.8569 22.8452L7.11572 20.9727L3.37061 18.7256L1.12354 15.7295L0.374512 13.4824V9.36279L1.87256 5.99219L4.11963 3.37061L9.36279 0.749023L13.8569 0Z" fill="url(#paint0_linear_29_148)"/>
<path d="M35.3745 0H43.6138L47.7334 7.11572L54.1001 17.6021L55.5981 19.8491L57.0962 17.9766L61.2158 10.8608L67.5825 0.374512L67.957 0H75.4473L75.0728 1.87256L69.4551 12.3589L64.5864 20.9727L58.2197 31.459L57.8452 31.8335H53.3511L49.9805 26.5903L43.6138 16.104L37.9961 5.61768L35.3745 0.749023V0Z" fill="url(#paint1_linear_29_148)"/>
<path d="M75.4473 14.2314H76.1963V35.2041L75.8218 35.5786H67.208L66.8335 35.2041V30.71L68.3315 26.9648L71.7021 20.9727L75.4473 14.2314Z" fill="url(#paint2_linear_29_148)"/>
<path d="M35 14.606H35.749L39.4941 21.7217L43.9883 29.5864L44.3628 30.71V33.7061L43.9883 35.5786H35.3745L35 35.2041V14.606Z" fill="url(#paint3_linear_29_148)"/>
<defs>
<linearGradient id="paint0_linear_29_148" x1="0" y1="18.5383" x2="30.3354" y2="18.5383" gradientUnits="userSpaceOnUse">
<stop stop-color="#33CB66"/>
<stop offset="1" stop-color="#33363F"/>
</linearGradient>
<linearGradient id="paint1_linear_29_148" x1="35.3745" y1="15.9167" x2="75.4473" y2="15.9167" gradientUnits="userSpaceOnUse">
<stop stop-color="#33CB66"/>
<stop offset="1" stop-color="#33363F"/>
</linearGradient>
<linearGradient id="paint2_linear_29_148" x1="66.8335" y1="24.905" x2="76.1963" y2="24.905" gradientUnits="userSpaceOnUse">
<stop stop-color="#33CB66"/>
<stop offset="1" stop-color="#33363F"/>
</linearGradient>
<linearGradient id="paint3_linear_29_148" x1="35" y1="25.0923" x2="44.3628" y2="25.0923" gradientUnits="userSpaceOnUse">
<stop stop-color="#33CB66"/>
<stop offset="1" stop-color="#33363F"/>
</linearGradient>
</defs>
</svg>
